<?xml version="1.0" standalone="no"?>
<!DOCTYPE svg PUBLIC "-//W3C//DTD SVG 20010904//EN"
 "http://www.w3.org/TR/2001/REC-SVG-20010904/DTD/svg10.dtd">
<svg version="1.0" xmlns="http://www.w3.org/2000/svg"
 width="300.000000pt" height="186.000000pt" viewBox="0 0 300.000000 186.000000"
 preserveAspectRatio="xMidYMid meet">
<metadata>
Created by potrace 1.10, written by Peter Selinger 2001-2011
</metadata>
<g transform="translate(0.000000,186.000000) scale(0.100000,-0.100000)"
fill="#002e7a" stroke="none">
<path d="M200 1720 l0 -80 150 0 150 0 0 80 0 80 -150 0 -150 0 0 -80z"/>
<path d="M198 986 l-3 -584 -24 -26 c-19 -20 -34 -26 -68 -26 l-43 0 0 -134 0
-135 46 -7 c25 -3 88 -2 140 4 120 14 178 41 222 106 l32 48 0 669 0 669 -150
0 -150 0 -2 -584z"/>
<path d="M753 1555 c-41 -18 -104 -81 -126 -127 -11 -23 -17 -61 -17 -107 l0
-71 150 0 c125 0 150 2 150 15 0 32 24 65 57 76 19 6 98 11 176 12 214 2 245
-20 246 -175 1 -38 -3 -68 -7 -68 -5 0 -21 13 -37 30 -43 45 -99 53 -335 48
-226 -5 -275 -15 -347 -68 -25 -18 -52 -51 -67 -82 -25 -49 -26 -60 -26 -215
0 -182 9 -215 70 -267 l32 -26 304 0 304 0 39 35 c21 19 44 49 51 65 20 47 30
35 30 -35 l0 -65 144 0 145 0 -2 448 -2 447 -27 46 c-15 26 -42 59 -59 73
l-31 26 -391 0 c-310 -1 -399 -4 -424 -15z m531 -594 c72 -9 96 -33 96 -96 0
-53 -28 -91 -78 -104 -62 -16 -223 -23 -301 -12 -95 12 -126 39 -126 106 0 61
33 94 106 105 69 10 227 10 303 1z"/>
<path d="M1885 1554 c-45 -23 -74 -54 -101 -106 l-24 -47 0 -359 0 -358 30
-47 c16 -25 48 -60 71 -77 l42 -30 295 0 295 0 41 42 c23 24 49 54 58 68 16
24 17 9 17 -267 l1 -293 160 0 160 0 0 745 0 745 -150 0 -150 0 0 -65 c0 -36
-3 -65 -7 -65 -5 0 -21 20 -36 45 -56 87 -45 85 -379 85 -246 0 -298 -3 -323
-16z m640 -270 c67 -35 80 -68 83 -224 3 -125 1 -138 -20 -180 -34 -67 -73
-82 -222 -88 -224 -8 -297 26 -317 148 -6 37 -8 103 -4 155 14 190 50 216 300
212 120 -2 146 -5 180 -23z"/>
<path d="M1830 430 l0 -50 -32 20 c-39 24 -107 26 -148 5 -69 -36 -95 -114
-61 -189 37 -86 136 -113 215 -60 55 37 66 73 66 209 0 108 -1 115 -20 115
-17 0 -20 -7 -20 -50z m-57 -61 c89 -46 69 -186 -30 -205 -89 -17 -163 86
-119 165 25 46 99 65 149 40z"/>
<path d="M2050 460 c0 -13 7 -20 20 -20 13 0 20 7 20 20 0 13 -7 20 -20 20
-13 0 -20 -7 -20 -20z"/>
<path d="M2340 412 c-95 -47 -108 -174 -26 -251 40 -37 119 -41 169 -7 l37 25
0 -24 c0 -16 6 -25 15 -25 12 0 15 18 15 102 0 94 -2 104 -26 136 -46 59 -119
77 -184 44z m121 -38 c18 -9 37 -31 46 -51 42 -101 -58 -189 -157 -138 -37 19
-50 43 -50 95 0 34 6 48 34 76 39 39 77 44 127 18z"/>
<path d="M599 394 c-22 -24 -24 -35 -28 -145 -3 -115 -2 -119 18 -119 20 0 21
5 21 108 0 122 12 152 59 152 50 0 60 -24 63 -145 3 -95 5 -110 21 -113 15 -3
17 7 17 107 0 106 1 110 26 130 33 26 75 27 97 3 12 -14 17 -43 19 -127 3 -97
5 -110 21 -113 17 -4 18 4 15 116 -3 111 -5 122 -27 146 -32 34 -96 36 -135 5
l-27 -21 -23 21 c-34 32 -105 29 -137 -5z"/>
<path d="M1170 382 c-66 -66 -64 -160 5 -221 30 -26 44 -31 86 -31 58 0 99 18
124 56 14 22 15 28 4 35 -10 6 -20 1 -34 -15 -49 -57 -111 -62 -161 -12 -19
19 -34 43 -34 55 0 20 5 21 125 21 120 0 125 1 125 21 0 36 -32 90 -64 110
-20 12 -50 19 -85 19 -49 0 -57 -3 -91 -38z m149 -6 c27 -14 55 -59 44 -70 -4
-3 -48 -6 -100 -6 -85 0 -93 2 -93 19 0 28 56 71 91 71 17 0 42 -6 58 -14z"/>
<path d="M2050 274 c0 -133 1 -145 18 -142 15 3 17 19 20 146 2 137 2 142 -18
142 -19 0 -20 -6 -20 -146z"/>
</g>
</svg>
