 <svg  version="1.0" xmlns="http://www.w3.org/2000/svg"  width="540.000000pt" height="540.000000pt" viewBox="0 0 540.000000 540.000000"  preserveAspectRatio="xMidYMid meet">  <g transform="translate(0.000000,540.000000) scale(0.100000,-0.100000)" fill="#35a9a2" stroke="none"> <path d="M0 2700 l0 -2700 2700 0 2700 0 0 2700 0 2700 -2700 0 -2700 0 0 -2700z m3995 1833 c80 -12 210 -58 235 -83 3 -3 22 -14 42 -24 21 -10 44 -28 52 -40 7 -12 30 -39 50 -60 20 -22 36 -45 36 -52 0 -6 7 -14 15 -18 8 -3 15 -14 15 -25 0 -10 7 -21 15 -25 8 -3 15 -16 15 -28 1 -13 7 -34 15 -48 8 -14 14 -48 15 -77 0 -28 5 -64 11 -80 13 -34 12 -254 -1 -267 -6 -6 -10 -41 -10 -79 0 -37 -5 -78 -11 -89 -14 -26 -39 -119 -46 -170 -3 -21 -11 -42 -19 -49 -8 -6 -14 -24 -14 -38 0 -15 -7 -36 -15 -47 -8 -10 -15 -26 -15 -35 0 -9 -7 -22 -15 -29 -8 -7 -15 -21 -15 -31 0 -10 -13 -44 -30 -74 -16 -30 -30 -62 -30 -69 0 -7 -6 -19 -14 -25 -8 -7 -18 -26 -21 -42 -4 -16 -10 -29 -14 -29 -4 0 -19 -24 -34 -52 -14 -29 -49 -90 -79 -135 -29 -45 -68 -107 -87 -137 -19 -30 -44 -65 -56 -78 -12 -13 -28 -34 -34 -47 -7 -12 -41 -58 -77 -102 -35 -44 -64 -83 -64 -88 0 -5 -7 -11 -15 -15 -8 -3 -15 -12 -15 -21 0 -8 -7 -15 -15 -15 -9 0 -18 -7 -21 -15 -4 -8 -25 -34 -48 -58 -22 -23 -70 -76 -106 -117 -90 -102 -188 -198 -211 -205 -10 -4 -19 -13 -19 -21 0 -8 -3 -14 -7 -14 -5 0 -38 -29 -75 -65 -51 -48 -66 -69 -61 -82 6 -15 4 -16 -9 -6 -12 11 -23 8 -59 -18 -24 -18 -64 -52 -89 -75 -24 -24 -53 -47 -64 -50 -22 -7 -34 -16 -80 -61 -18 -18 -40 -33 -48 -33 -9 0 -18 -7 -22 -15 -3 -8 -12 -15 -20 -15 -7 0 -16 -7 -20 -15 -3 -8 -13 -15 -23 -15 -10 0 -29 -10 -43 -23 -43 -38 -150 -107 -192 -123 -24 -9 -22 -19 6 -32 30 -13 433 -14 479 -1 18 5 102 12 187 15 85 3 177 12 204 20 27 8 75 14 105 14 31 0 84 7 118 15 34 8 85 15 113 16 28 1 55 8 61 16 7 8 33 13 71 13 33 0 69 5 81 12 12 6 42 15 67 20 75 12 154 33 177 46 12 6 35 12 51 12 16 0 43 7 58 15 16 8 42 15 57 15 15 0 30 7 33 15 4 10 20 15 44 15 21 0 43 7 50 15 7 8 23 15 36 15 12 0 25 4 29 9 3 5 19 12 35 16 17 4 30 11 30 16 0 5 10 9 23 9 12 0 36 9 52 20 17 11 37 20 46 20 9 0 22 7 29 15 7 8 23 15 35 15 13 0 25 7 29 15 8 21 82 20 90 -1 12 -31 5 -49 -29 -74 -19 -14 -35 -30 -35 -37 0 -7 -16 -20 -36 -29 -21 -10 -48 -28 -62 -41 -14 -13 -29 -23 -34 -23 -5 0 -29 -16 -52 -35 -24 -19 -48 -35 -53 -35 -6 0 -16 -7 -23 -15 -7 -9 -32 -25 -54 -36 -23 -11 -54 -28 -71 -39 -16 -11 -39 -24 -50 -30 -11 -5 -28 -14 -37 -20 -41 -23 -56 -31 -124 -65 -39 -19 -76 -35 -81 -35 -6 0 -16 -7 -23 -15 -7 -8 -22 -15 -35 -15 -12 0 -30 -9 -39 -19 -10 -11 -24 -17 -31 -14 -8 2 -24 -2 -37 -11 -12 -9 -32 -16 -45 -16 -12 0 -24 -4 -27 -9 -3 -5 -27 -12 -53 -16 -26 -4 -56 -13 -67 -21 -11 -8 -41 -14 -66 -14 -26 0 -55 -7 -66 -15 -12 -9 -43 -14 -89 -15 -39 0 -102 -7 -140 -15 -82 -17 -626 -20 -710 -4 -27 5 -104 13 -170 18 -66 5 -151 13 -190 19 -132 21 -270 35 -357 36 -86 1 -86 1 -123 39 -50 51 -47 87 10 102 22 5 50 16 62 23 12 6 28 12 35 12 30 0 302 122 314 141 3 5 14 9 26 9 11 0 37 13 57 29 20 15 47 34 61 41 14 7 41 25 61 41 19 15 47 31 62 34 15 4 27 11 27 16 0 5 6 9 14 9 23 0 31 22 12 36 -12 8 -14 14 -5 19 6 4 15 2 19 -5 5 -9 19 -5 51 16 56 35 419 397 419 418 0 9 4 16 9 16 21 0 217 275 237 333 4 9 10 17 15 17 5 0 9 6 9 13 0 7 19 42 43 78 23 35 50 85 61 109 10 25 22 52 27 60 5 8 14 27 20 43 6 15 15 27 20 27 5 0 9 11 9 24 0 14 7 31 15 40 8 8 15 21 15 28 0 7 14 46 30 87 17 40 30 79 30 86 0 7 7 18 15 25 8 7 15 29 15 50 0 21 7 43 15 50 8 7 15 23 15 37 0 13 6 38 14 56 7 18 16 54 20 79 4 26 11 50 17 53 5 4 9 26 9 49 0 24 7 63 16 87 12 35 16 91 17 270 2 199 0 228 -16 252 -9 14 -17 36 -17 48 0 41 -62 153 -114 207 -27 28 -55 52 -60 52 -5 0 -24 11 -42 25 -19 15 -46 25 -66 25 -18 1 -44 7 -58 15 -30 17 -119 19 -175 4 -22 -6 -65 -15 -95 -19 -30 -5 -75 -14 -100 -21 -43 -11 -59 -17 -143 -53 -21 -9 -48 -16 -61 -16 -13 0 -26 -7 -30 -15 -3 -8 -13 -15 -22 -15 -15 0 -117 -47 -174 -80 -8 -5 -22 -11 -30 -14 -8 -3 -23 -12 -34 -18 -10 -7 -69 -46 -130 -85 -61 -40 -120 -79 -131 -88 -10 -8 -24 -15 -31 -15 -7 0 -14 -6 -17 -14 -6 -14 -120 -106 -132 -106 -8 0 -196 -180 -234 -224 -15 -16 -37 -40 -51 -54 -125 -120 -150 -148 -146 -164 2 -10 0 -18 -4 -18 -7 0 -49 -47 -153 -172 -19 -23 -25 -40 -22 -57 5 -18 2 -22 -9 -18 -9 4 -28 -14 -55 -54 -23 -33 -41 -64 -41 -69 0 -6 -4 -10 -10 -10 -5 0 -10 -6 -10 -12 0 -7 -11 -33 -24 -58 -64 -119 -156 -309 -156 -321 0 -14 -34 -108 -51 -141 -5 -10 -9 -28 -9 -40 -1 -13 -7 -34 -15 -48 -8 -14 -14 -39 -15 -56 0 -17 -7 -37 -15 -44 -10 -9 -15 -31 -15 -72 0 -32 -6 -71 -14 -86 -8 -17 -16 -77 -19 -157 -3 -71 -10 -141 -15 -155 -7 -18 -6 -35 3 -57 7 -17 13 -74 14 -129 1 -75 5 -100 16 -107 9 -4 15 -22 15 -41 0 -18 11 -53 25 -77 13 -24 32 -59 41 -77 20 -40 31 -47 49 -32 9 7 15 8 20 0 3 -5 -1 -10 -9 -10 -21 0 -20 -14 1 -31 13 -11 17 -11 20 -1 3 6 10 12 16 12 8 0 7 -4 -1 -12 -19 -19 -14 -28 18 -28 20 0 30 -5 30 -15 0 -14 16 -20 52 -17 9 1 22 -5 28 -13 8 -9 31 -15 59 -16 82 -1 133 -13 145 -33 6 -11 24 -33 40 -49 30 -30 69 -97 62 -105 -3 -2 -24 -6 -48 -9 -24 -3 -52 -12 -63 -19 -11 -8 -39 -14 -63 -14 -24 0 -53 -6 -65 -12 -20 -12 -195 -28 -322 -30 -79 -1 -257 18 -295 32 -66 24 -125 53 -157 76 -17 13 -37 24 -42 24 -15 0 -96 80 -104 104 -6 14 -10 16 -21 7 -10 -8 -16 -9 -21 -1 -3 5 -1 10 4 10 18 0 13 17 -19 68 -17 27 -30 58 -30 69 0 10 -7 28 -15 39 -9 11 -14 42 -15 77 0 32 -5 68 -12 80 -17 31 -18 156 -1 189 7 15 13 59 13 100 0 45 6 84 15 102 8 15 15 42 15 60 1 17 7 42 15 56 8 14 14 34 15 45 0 11 7 33 15 49 8 15 15 39 15 51 0 13 7 30 15 39 8 8 15 23 15 34 0 11 7 25 15 32 8 7 15 19 15 28 0 13 54 129 79 172 5 8 12 22 15 30 4 8 15 29 26 45 11 17 24 39 29 51 13 28 73 126 86 140 5 6 19 27 30 47 11 20 23 37 27 37 5 0 8 6 8 14 0 16 134 200 200 276 43 50 56 66 115 142 42 54 425 440 491 495 22 18 45 33 52 33 6 0 12 5 12 10 0 14 55 61 129 111 33 22 69 51 80 65 10 13 28 24 40 24 22 0 28 14 11 25 -6 4 -8 10 -5 15 4 6 13 5 24 -1 14 -9 23 -6 51 20 19 17 39 31 45 31 6 0 22 13 35 30 14 16 33 29 43 30 9 0 36 14 59 30 22 17 47 30 55 30 7 0 13 4 13 9 0 5 13 14 30 19 16 6 41 22 55 36 14 15 34 26 45 26 10 0 20 4 22 8 2 5 15 15 30 23 50 27 213 106 241 117 15 6 27 16 27 22 0 5 11 10 24 10 14 0 27 4 31 9 3 5 20 13 37 17 18 3 39 10 48 15 8 4 38 17 65 29 28 12 63 28 78 36 16 8 34 14 42 14 7 0 26 7 41 15 16 8 43 15 60 15 17 0 37 7 44 15 7 8 25 15 40 15 15 0 44 7 63 15 20 8 56 15 80 15 24 0 52 7 63 15 12 9 45 15 89 16 39 0 81 5 95 9 29 10 199 6 285 -7z m-675 -2909 c0 -9 -5 -14 -12 -12 -18 6 -21 28 -4 28 9 0 16 -7 16 -16z m-325 -234 c3 -6 -1 -13 -10 -16 -19 -8 -30 0 -20 15 8 14 22 14 30 1z"/> </g> </svg> 